<svg xmlns="http://www.w3.org/2000/svg" viewBox="0 0 512 512">
  <defs>
    <linearGradient id="bg" x1="0%" y1="0%" x2="100%" y2="100%">
      <stop offset="0%" stop-color="#12365a" />
      <stop offset="100%" stop-color="#1f5a8c" />
    </linearGradient>
    <linearGradient id="pad" x1="0%" y1="0%" x2="0%" y2="100%">
      <stop offset="0%" stop-color="#f8fbff" />
      <stop offset="100%" stop-color="#d9e7f6" />
    </linearGradient>
  </defs>
  <rect width="512" height="512" rx="112" fill="url(#bg)" />
  <circle cx="108" cy="118" r="96" fill="#8dd4c6" opacity="0.18" />
  <circle cx="422" cy="396" r="104" fill="#ffe08a" opacity="0.14" />
  <path d="M121 312c0-84 68-152 152-152h0c84 0 152 68 152 152v0c0 33-27 60-60 60H181c-33 0-60-27-60-60z" fill="url(#pad)" />
  <circle cx="186" cy="286" r="42" fill="#dbe6f3" stroke="#7a8ea9" stroke-width="14" />
  <circle cx="348" cy="274" r="26" fill="#f8d76f" stroke="#ad8927" stroke-width="12" />
  <circle cx="305" cy="318" r="30" fill="#9ce2ab" stroke="#2a6f3d" stroke-width="12" />
  <circle cx="390" cy="318" r="30" fill="#a1c8ff" stroke="#1b4d97" stroke-width="12" />
  <rect x="234" y="286" width="44" height="16" rx="8" fill="#c33434" />
  <rect x="142" y="112" width="64" height="26" rx="13" fill="#edf4fb" />
  <rect x="222" y="96" width="68" height="28" rx="14" fill="#d3dde9" />
  <rect x="306" y="112" width="64" height="26" rx="13" fill="#edf4fb" />
</svg>
